<svg xmlns="http://www.w3.org/2000/svg" viewBox="0 0 512.003 512.003"><path d="M372.795 297.211c-4.733-1.59-7.91-6.072-7.904-11.16v-.17c0-60.042-48.848-108.89-108.89-108.89-60.041 0-108.89 48.849-108.89 108.89v.179c.004 5.08-3.173 9.562-7.904 11.153-44.577 14.984-74.385 56.668-74.172 103.725.145 32.443 14.766 62.963 40.115 83.735 4.196 3.436 10.385 2.825 13.822-1.372 3.439-4.196 2.823-10.383-1.371-13.822-20.805-17.048-32.804-42.061-32.923-68.629-.174-38.571 24.254-72.737 60.788-85.018 12.744-4.284 21.301-16.255 21.289-29.78v-.17c0-49.211 40.035-89.246 89.246-89.246s89.246 40.037 89.246 89.246v.161c-.013 13.533 8.542 25.506 21.289 29.789 36.531 12.281 60.96 46.445 60.788 85.015-.215 48.027-39.438 87.871-87.438 88.82-5.48.11-10.967-.28-16.32-1.154a418.327 418.327 0 00-135.138 0 90.265 90.265 0 01-16.313 1.154 88.824 88.824 0 01-15.106-1.6c-5.322-1.032-10.479 2.445-11.513 7.768-1.035 5.325 2.444 10.48 7.77 11.513a108.385 108.385 0 0020.642 1.98c5.937 0 11.878-.479 17.688-1.429a398.682 398.682 0 01128.805 0 110.301 110.301 0 0019.875 1.408c58.568-1.156 106.429-49.772 106.692-108.37.21-47.059-29.598-88.743-74.173-103.726z" fill="#fff"/><path d="M511.991 203.62c-.377-29.094-9.135-49.389-24.663-57.147-15.525-7.756-37.014-2.572-60.501 14.601-18.112 13.242-35.437 32.462-43.111 47.826a64.987 64.987 0 00-5.166 14.299c-1.23 5.283 2.055 10.563 7.339 11.794 5.28 1.234 10.561-2.055 11.794-7.337a45.328 45.328 0 013.605-9.976c6.303-12.614 21.572-29.37 37.133-40.749 16.757-12.251 31.758-17.069 40.131-12.885 18.992 9.488 16.334 68.329 3.515 93.99-11.127 22.27-38.297 31.335-60.568 20.211-9.067-4.53-16.168-11.743-20.531-20.858-2.341-4.894-8.208-6.962-13.099-4.617-4.892 2.341-6.96 8.207-4.617 13.099 6.267 13.093 16.457 23.449 29.47 29.949a64.369 64.369 0 0028.85 6.824c23.789-.001 46.732-13.141 58.066-35.829 7.677-15.365 12.64-40.761 12.353-63.195zm-383.706 5.282c-7.675-15.365-25.002-34.586-43.113-47.827-23.487-17.172-44.977-22.359-60.502-14.601C9.143 154.231.385 174.526.012 203.62c-.288 22.434 4.675 47.83 12.353 63.195 11.335 22.69 34.276 35.828 58.066 35.828a64.395 64.395 0 0028.85-6.824c15.483-7.734 27.026-21.035 32.504-37.452 5.478-16.416 4.236-33.984-3.5-49.465zm-15.131 43.247c-3.817 11.439-11.862 20.708-22.65 26.097-22.271 11.127-49.44 2.06-60.568-20.21-12.818-25.66-15.479-84.501 3.513-93.99 8.376-4.183 23.375.635 40.132 12.885 15.563 11.379 30.832 28.135 37.133 40.75 5.39 10.788 6.257 23.029 2.44 34.468zM340.348 2.675c-41.476 0-70.583 67.736-70.583 104.41-.001 38.919 31.662 70.584 70.583 70.584s70.584-31.663 70.584-70.584c0-36.674-29.108-104.41-70.584-104.41zm-.001 155.351c-28.088 0-50.94-22.852-50.94-50.941 0-15.438 6.642-37.559 16.525-55.045 10.677-18.889 23.221-29.721 34.415-29.721 11.195 0 23.738 10.833 34.416 29.721 9.884 17.486 16.525 39.607 16.525 55.045 0 28.09-22.851 50.941-50.941 50.941zM171.651 2.675c-41.474 0-70.583 67.736-70.583 104.41 0 38.919 31.663 70.584 70.583 70.584 10.618 0 20.828-2.302 30.35-6.842 4.895-2.335 6.972-8.196 4.637-13.093a9.82 9.82 0 00-13.093-4.637c-6.858 3.271-14.224 4.929-21.894 4.929-28.088 0-50.94-22.852-50.94-50.941 0-15.438 6.641-37.559 16.525-55.045 10.677-18.889 23.221-29.721 34.415-29.721s23.738 10.833 34.415 29.721c9.884 17.486 16.525 39.607 16.525 55.045 0 10.209-3.007 20.056-8.694 28.476-3.036 4.494-1.854 10.599 2.641 13.636 4.496 3.037 10.601 1.854 13.636-2.641 7.889-11.678 12.06-25.328 12.06-39.471 0-36.674-29.109-104.41-70.583-104.41z" fill="#fff"/></svg>