<svg version="1.0" xmlns="http://www.w3.org/2000/svg" width="30t" height="30" viewBox="0 0 300 300"><path d="M43.4 6.7c.3 2.7.9 8 1.2 12l.7 7.2-2.9.6C25 30.4 22 32.3 19.6 40.8c-2.1 7.5-4 9.9-11.6 14.8-6.5 4.1-7.7 6.3-6.1 10.8.6 1.5 1.1 4 1.1 5.6 0 1.6.9 4.4 2 6.3 1.1 1.9 1.8 4.1 1.5 4.9-.4.9.5 2.8 1.8 4.4 2.1 2.4 3.3 2.9 7.4 2.9 2.6 0 5.8-.4 7-.8 1.7-.6 2.8 0 5.7 3 2 2.1 3.9 4.8 4.2 6.1.4 1.3-.8 8.1-2.7 15.4-2 7.9-2.9 13.3-2.3 13.5.6.2 0 4.1-1.4 10.2-2.1 8.2-2.3 11.1-1.7 17.5.5 6.3 1 7.6 2.3 7.4 1.6-.3 2.2 1.1 5.2 13 1.2 4.8 5.2 10.2 13.5 18l7.2 6.8.8 8.5c1.4 15.6 0 37.9-3.8 60.1-1.5 8.5-2.8 10.8-6.4 10.8-3.3 0-6.6 3.8-8 9.3-1.5 5.4-.9 7.6 2.1 8.1 5 1.1 19 1.3 21.5.5 1.7-.6 4.2-3.3 6.7-7.2 3.3-5 4.7-8.8 7.3-19.7 3.5-14.7 10-29.5 15.3-35.2 3.5-3.7 4.1-3.2 5.2 4.5 1.2 7.8 3.5 14.7 4.9 14.2.7-.3 2.4 1.7 3.9 4.5 1.8 3.1 3.5 5 4.6 5 1 0 2.6 1.3 3.5 3 1 1.6 4.8 5.1 8.5 7.7 3.7 2.6 6.9 4.8 7.1 5 .9.7-.8 1.2-6.8 2.2-7.4 1.2-10.3 3.4-12.7 9.6-1.2 3.3-1.3 4.7-.5 6.4 1.2 2.1 1.4 2.1 44.2 2.1 44.4 0 45 0 49.5-4.2 2-1.8 2.7-1.8 8.4-.8 7.5 1.4 25.6 1.4 36.2 0 15.1-1.9 22.7-4.6 32.4-11.5 7.2-5.2 11.4-10.1 14.9-17.6 3.4-7.4 3.3-12.3-.3-8.7-2.3 2.3-2.1.1.5-6.2 3.6-8.9 4.8-19.9 3.5-30.3-2.2-16.8-7.6-28.5-25.3-54.9-18.5-27.7-22.6-37.6-21.7-52.5.5-9.3 3.3-16.1 8.6-21.7 4.3-4.5 12.3-8.6 17-8.6 1.7 0 3.2-.4 3.2-.8s-1.5-2.2-3.2-3.8c-10.1-9.2-28.2-10.5-44.1-3-12.3 5.7-20.9 15.1-26.6 29.2-2.2 5.3-3.2 6.8-4.6 6.6-1.7-.3-1.8.4-1.2 9.5.9 14.5 6.1 29.5 16.2 46.3 16.1 26.7 22.3 40.4 24.5 53.9 3.3 20.1-4.8 36.1-20.5 40.3-2.8.8-4.8.9-5.4.3-.5-.6-.3-3.8.6-8 1.7-8.1.6-21-2.8-34.3-4.9-19-19.3-53.7-29.3-70.6-3.3-5.6-4.4-8.2-3.6-9.1.7-.8-.6-2.7-4.7-6.8-3.2-3.2-6.1-5.7-6.5-5.7-.4 0-.8-.6-.8-1.4 0-1.3-5.9-6.6-11-9.7-1.4-.9-6.1-3-10.5-4.8-6.7-2.7-9.8-3.3-18.7-3.8l-10.8-.6-2.9-5.1c-1.5-2.8-5.2-7.4-8-10.2-5.2-5-5.3-5.3-9.7-20.5-7.2-25.1-10.2-31.6-19.3-41-3.6-3.7-7.9-8.4-9.5-10.4-1.6-2-5.3-5.2-8.3-7.1-3-1.9-6.8-5-8.6-6.9C46 3.6 44.1 2 43.6 2c-.5 0-.6 2.1-.2 4.7z"/></svg>