<svg xmlns="http://www.w3.org/2000/svg" viewBox="0 0 512.001 512.001"><path d="M405.105 213.757l106.879-106.879L405.104 0 298.225 106.878l-13.359-13.359C267.024 75.676 243.3 65.85 218.067 65.85c-25.234 0-48.957 9.826-66.799 27.668l-31.175 31.171 80.161 80.162L22.117 382.986c-29.467 29.467-29.467 77.413.001 106.882 14.275 14.272 33.253 22.133 53.44 22.133h.003c20.185 0 39.164-7.861 53.437-22.135L307.134 311.73l80.159 80.16 31.172-31.175c36.833-36.833 36.833-96.764 0-133.598l-13.36-13.36zM102.276 463.146c-7.137 7.137-16.625 11.067-26.717 11.067a37.95 37.95 0 01-9.788-1.284l18.692-18.692-26.719-26.72-18.671 18.671c-3.352-12.606-.105-26.616 9.764-36.485l178.136-178.136 53.442 53.442-178.139 178.137zm289.468-129.151l-4.453 4.453L173.534 124.69l4.453-4.451c10.705-10.706 24.938-16.603 40.08-16.603 15.14 0 29.375 5.896 40.08 16.603l40.079 40.077L405.104 53.438l53.44 53.44-106.878 106.879 40.077 40.079c22.101 22.099 22.101 58.058.001 80.159z"/></svg>