<svg version="1.0" xmlns="http://www.w3.org/2000/svg" width="400" height="400" viewBox="0 0 300 300"><path d="M273 88.1c-10.2 3.6-15.7 6.7-19.4 11.1-3.2 3.7-4.7 4.5-10.9 6.1-4 1-8.8 2.2-10.7 2.7-2.2.6-5.7.6-9.3-.1-3.2-.5-8.4-.9-11.5-.8-3.5.1-8.6-.6-13.2-2-19.3-5.6-24-6.3-35.5-5.8-10 .4-17.8 2-27 5.7-1.1.4-5.1 2-9 3.5-3.8 1.5-7.8 3.1-8.8 3.7-1.1.5-6.2.8-11.5.7-5.4-.1-10.6.2-11.7.8-1.1.6-4 1.3-6.4 1.7-4.8.7-19.1 7.3-20.4 9.3-.4.7-2.3 2-4.2 2.9-3.3 1.5-7.2 5.5-18.7 18.6C38 154 32.4 157 24.6 157c-6.7 0-10.4-2.7-11.1-7.9-.2-1.8-.6-3.5-.8-3.7-.3-.3-1.9.7-3.6 2.1-3.2 2.7-7.1 10.3-7.1 13.7 0 4.6 7.8 14.8 11.3 14.8.6 0 2.8 1.2 4.9 2.6 3.6 2.5 4.3 2.6 13.5 2.2 13.6-.6 20.5-4.1 36.3-18.4 8.9-8 13.6-11.7 19.4-14.9 6.3-3.5 7.3-2.5 8.2 7.7l.7 7.7L93 166c-1.8 1.6-4.2 3-5.4 3-3.4 0-5.6 5-7.7 17.8-2.2 13.6-2.4 21-.5 23.4 1.6 2.1 11.5 2.5 13.4.6 2.1-2.1 1.3-5.2-2-7.9l-3.2-2.6 1.9-4.9c2.6-7 9.5-13.4 17-15.8 3.3-1 7.7-2.5 9.8-3.2 4.7-1.8 4.7-1.8 4.7.4 0 1-1.1 2.9-2.5 4.2-1.4 1.3-2.5 2.8-2.5 3.3 0 1.3 6.9 9.7 15.4 18.8l7.4 7.9h5.5c6.7 0 9.4-1.9 7.6-5.3-2.1-4-3.9-5.4-6.3-5-1.8.4-3.2-.6-6.5-4.3-5.9-6.7-6.1-8.5-1.8-14.7 2-2.9 5.3-6.9 7.4-9 3.7-3.5 4.3-3.7 11.8-4.3 20.7-1.4 23.5-1.3 25.6 1 3.8 4 6.2 11 7.9 22.6 1.4 9.7 3.5 15.7 5.9 16.9 1.6.9 16.5 0 17.6-1 .3-.3-.1-2.2-1-4.2-1.1-2.7-2.2-3.6-4.2-3.9-2.3-.2-2.9-1-3.6-4.3-1.6-7.7.7-18.1 4.8-21.5 1.3-1 2.3-1 5.3.3 2 .9 6.2 2.1 9.2 2.8 15.1 3.3 20.8 5.9 26.9 12.3 2.3 2.3 4.4 3.6 6.1 3.6 1.4 0 4.7 1.3 7.3 3 2.6 1.7 5 3 5.2 3 .3 0 1.2-1.1 2-2.4 1.3-2 1.4-3.2.5-6.5-.6-2.5-1.7-4.1-2.6-4.1-.8 0-4.3-2.7-7.7-6-3.4-3.2-7-6.5-7.9-7.2-1.9-1.5-6.2-9.9-7.2-14.1-.6-2.4 0-3.4 3.9-7.2 2.6-2.6 4.8-5.8 5.1-7.5.7-3.2 3-4 5.3-1.8 1.7 1.8 4.1-1.5 4.1-5.7 0-3.6 3.5-7.5 6.6-7.5 1 0 2.8.7 3.8 1.5 1.1.8 2.8 1.5 3.7 1.5 1.7 0 10.9-9.6 10.9-11.4 0-.4-1.4-2.4-3.1-4.4-2.7-3-3-4.1-2.6-7.5.6-4.2-.8-6.2-7.4-10.9l-2.4-1.7 2.7-5c1.6-2.8 2.5-5.1 2-5-.4 0-3.2.9-6.2 2z"/></svg>